<svg width="5102" height="1862" viewBox="0 0 5102 1862" fill="none" xmlns="http://www.w3.org/2000/svg">
<path d="M912.06 1828C749.345 1828 598.619 1793.72 459.884 1725.16C321.148 1656.6 209.817 1553.76 125.89 1416.64C41.9633 1279.51 0 1112.4 0 915.286C0 740.456 39.3941 583.623 118.182 444.788C198.683 305.952 310.871 197.112 454.745 118.267C600.332 39.4224 767.329 3.91083e-09 955.736 3.91083e-09C1075.63 3.91083e-09 1183.54 13.7122 1279.45 41.1365C1377.08 68.5607 1454.16 98.556 1510.68 131.122V416.506C1457.58 323.949 1377.94 249.39 1271.75 192.827C1167.27 136.264 1060.22 107.983 950.597 107.983C798.159 107.983 665.418 140.549 552.374 205.682C441.043 269.101 355.404 359.944 295.456 478.211C235.508 596.478 205.535 735.314 205.535 894.717C205.535 1067.83 239.79 1216.1 308.302 1339.5C378.526 1462.91 471.017 1555.47 585.774 1617.18C700.53 1678.88 825.564 1709.73 960.874 1709.73C1022.53 1709.73 1085.91 1702.88 1150.99 1689.16C1217.79 1673.74 1279.45 1652.31 1335.97 1624.89V1200.67C1335.97 1147.53 1327.41 1106.4 1310.28 1077.26C1293.16 1046.41 1274.31 1024.98 1253.76 1012.98C1233.21 999.272 1222.93 997.558 1222.93 997.558H1634C1634 997.558 1623.72 997.558 1603.17 1007.84C1582.62 1018.13 1563.78 1037.84 1546.65 1066.98C1529.52 1094.4 1520.96 1133.82 1520.96 1185.24V1653.17C1430.18 1709.73 1331.69 1753.44 1225.5 1784.29C1121.02 1813.43 1016.54 1828 912.06 1828Z" fill="#fefcf6"/>
<path d="M3243.18 1206.95C3243.18 1344.4 3214.81 1462.71 3158.08 1561.88C3101.34 1659.31 3020.96 1734.12 2916.95 1786.32C2814.82 1836.77 2695.68 1862 2559.51 1862C2334.46 1862 2160.47 1804.59 2037.54 1689.76C1914.61 1574.93 1853.15 1415.73 1853.15 1212.17V277.869C1853.15 208.275 1843.69 156.079 1824.78 121.282C1807.76 84.7455 1787.9 60.3877 1765.2 48.2088C1744.4 36.0298 1734 31.6802 1734 35.1599H2176.54C2176.54 35.1599 2165.19 36.0298 2142.5 48.2088C2121.7 60.3877 2101.84 83.8756 2082.93 118.673C2065.91 153.47 2057.4 203.925 2057.4 270.039V1212.17C2057.4 1380.93 2100.89 1511.42 2187.89 1603.63C2276.78 1695.84 2406.32 1741.95 2576.53 1741.95C2733.5 1741.95 2857.38 1698.45 2948.15 1611.46C3038.93 1522.73 3084.32 1392.24 3084.32 1220V277.869C3084.32 208.275 3074.86 156.079 3055.95 121.282C3037.04 84.7455 3016.24 60.3877 2993.54 48.2088C2970.85 36.0298 2959.5 35.1599 2959.5 35.1599H3368C3368 35.1599 3356.65 36.0298 3333.96 48.2088C3311.26 60.3877 3290.46 84.7455 3271.55 121.282C3252.64 156.079 3243.18 208.275 3243.18 277.869V1206.95Z" fill="#fefcf6"/>
<path d="M3991.54 1828C3893.96 1828 3800.14 1816.04 3710.07 1792.13C3619.99 1766.5 3539.31 1731.49 3468 1687.07V1377.03C3516.79 1491.48 3590.91 1578.6 3690.36 1638.39C3791.69 1696.47 3896.78 1725.51 4005.61 1725.51C4114.45 1725.51 4205.46 1693.05 4278.64 1628.14C4351.82 1561.52 4388.41 1479.53 4388.41 1382.16C4388.41 1317.25 4373.4 1261.73 4343.38 1215.61C4315.23 1169.49 4269.26 1126.78 4205.46 1087.49C4141.66 1046.49 4051.59 1001.23 3935.24 951.689C3771.99 883.36 3652.83 812.47 3577.77 739.017C3504.59 663.855 3468 573.32 3468 467.411C3468 376.876 3491.46 296.59 3538.37 226.554C3640.83 75.8759 3821.63 -2.91428 4000.29 0.0824106C4178.96 3.0791 4273.08 61.6917 4341.73 115.82C4391.76 155.261 4402.08 210.427 4385.35 259.43C4359.79 301.432 4379.29 400.136 4379.29 400.136C4329.34 313.235 4237.91 106.125 3994.35 106.125C3750.8 106.125 3636.88 288.679 3636.88 426.414C3636.88 564.149 3731.44 644.1 3839.54 703.144C3897.71 733.892 3978.4 771.473 4081.61 815.886C4186.69 862.008 4273.01 904.713 4340.56 944.002C4408.12 983.291 4464.41 1034.54 4509.45 1097.74C4554.48 1160.94 4577 1237.81 4577 1328.35C4577 1430.84 4549.79 1519.67 4495.37 1594.83C4442.83 1669.99 4371.53 1728.07 4281.45 1769.07C4193.26 1808.36 4096.62 1828 3991.54 1828Z" fill="#fefcf6"/>
<path d="M4677 1828C4677 1828 4690.74 1826.83 4708.88 1817.37C4727.01 1807.91 4749.6 1778.4 4767.31 1742.98C4785.02 1705.78 4793.88 1651.75 4793.88 1580.9V247.099C4793.88 176.246 4785.02 123.107 4767.31 87.6802C4751.37 50.4825 4732.78 25.684 4711.53 13.2849C4690.28 0.885596 4679.66 3.91083e-09 4679.66 3.91083e-09H5102C5102 3.91083e-09 5091.38 0.885596 5070.12 13.2849C5048.88 25.684 5029.4 50.4825 5011.69 87.6802C4993.98 123.107 4985.12 176.246 4985.12 247.099V1580.9C4985.12 1651.75 4993.98 1705.78 5011.69 1742.98C5029.4 1778.4 5048.88 1802.32 5070.12 1814.72C5091.38 1827.11 5102 1828 5102 1828H4677Z" fill="#fefcf6"/>
</svg>
