<svg width="1204" height="1204" viewBox="0 0 1204 1204" fill="none" xmlns="http://www.w3.org/2000/svg">
<path d="M737.483 473.811C729.617 510.72 699.502 557.041 672.252 530.381C645.001 503.722 692.349 474.26 730.076 466.565L739.434 464.656L737.483 473.811Z" fill="#3F130B"/>
<path d="M737.483 730.858C729.617 693.949 699.502 647.628 672.252 674.288C645.001 700.948 692.349 730.41 730.076 738.105L739.434 740.013L737.483 730.858Z" fill="#3F130B"/>
<path d="M468.82 730.858C476.685 693.949 506.8 647.628 534.051 674.288C561.301 700.948 513.953 730.41 476.226 738.105L466.868 740.013L468.82 730.858Z" fill="#3F130B"/>
<path d="M468.82 473.811C476.685 510.72 506.8 557.041 534.051 530.381C561.301 503.722 513.953 474.26 476.226 466.565L466.868 464.656L468.82 473.811Z" fill="#3F130B"/>
<path fill-rule="evenodd" clip-rule="evenodd" d="M602.547 0C596.218 20.4793 578.658 38.4232 559.543 57.9556C535.569 82.4541 509.149 109.452 499.376 147.085C499.376 147.085 362.183 132.054 362.183 265.183C362.183 325.292 398.623 347.386 441.197 373.2C453.374 380.583 466.052 388.27 478.522 397.237C488.159 404.167 495.558 408.509 503.352 413.084C508.841 416.305 514.526 419.641 521.326 424.078C553.421 445.013 577.081 466.163 580.594 501.378C584.106 536.593 558.643 560.427 545.472 567.942C535.229 575.1 503.603 586.21 469.742 559.353C443.967 538.91 421.729 492.082 404.431 455.657C394.477 434.696 386.159 417.18 379.744 410.121C362.183 390.796 330.354 358.587 268.892 361.808C219.723 364.385 186.211 404.395 175.602 424.078C164.992 443.761 163.506 484.2 163.506 497.083C101.553 513.733 72.9615 541.122 48.1378 564.903C32.9428 579.46 19.1594 592.664 0 601.225C19.2126 609.809 33.0193 623.288 48.2645 638.171C73.0588 662.376 101.658 690.296 163.506 706.916C163.506 719.8 164.992 760.239 175.602 779.922C186.211 799.605 219.723 839.615 268.892 842.192C330.354 845.413 362.183 813.204 379.744 793.879C386.159 786.82 394.477 769.304 404.431 748.343C421.729 711.918 443.967 665.09 469.742 644.647C503.603 617.79 535.229 628.9 545.472 636.058C558.643 643.573 584.106 667.407 580.594 702.622C577.081 737.837 553.421 758.987 521.326 779.922C514.526 784.359 508.841 787.695 503.352 790.916C495.558 795.491 488.159 799.833 478.522 806.763C466.054 815.729 453.378 823.415 441.203 830.797C398.629 856.61 362.183 878.708 362.183 938.817C362.183 1071.95 499.376 1056.92 499.376 1056.92C509.149 1094.55 535.569 1121.55 559.543 1146.04C578.658 1165.58 596.218 1183.52 602.547 1204C608.874 1183.53 626.165 1165.59 644.984 1146.07C668.606 1121.56 694.635 1094.56 704.412 1056.91C704.412 1056.91 841.604 1071.95 841.604 938.817C841.604 878.708 805.164 856.613 762.59 830.799C750.414 823.417 737.736 815.73 725.265 806.762C715.949 800.063 708.723 795.781 701.211 791.371L700.435 790.915C694.947 787.694 689.261 784.358 682.461 779.922C650.367 758.987 626.706 737.836 623.194 702.622C619.682 667.407 645.144 643.573 658.315 636.057C668.559 628.9 700.184 617.79 734.045 644.646C759.821 665.09 782.059 711.918 799.356 748.342C809.311 769.304 817.629 786.82 824.043 793.879C841.604 813.204 873.433 845.412 934.895 842.192C984.065 839.615 1017.58 799.605 1028.19 779.922C1038.8 760.239 1040.28 719.799 1040.28 706.916C1102.14 690.291 1130.82 662.363 1155.68 638.154C1170.96 623.278 1184.79 609.806 1204 601.225C1184.85 592.667 1171.04 579.47 1155.81 564.92C1130.92 541.135 1102.25 513.737 1040.28 497.084C1040.28 484.201 1038.8 443.761 1028.19 424.078C1017.58 404.395 984.065 364.385 934.895 361.808C873.433 358.587 841.604 390.796 824.043 410.121C817.629 417.18 809.31 434.697 799.356 455.658C782.059 492.082 759.821 538.91 734.045 559.354C700.184 586.21 668.559 575.1 658.315 567.943C645.144 560.427 619.682 536.593 623.194 501.378C626.706 466.164 650.367 445.013 682.461 424.078C689.261 419.642 694.947 416.305 700.435 413.084C708.229 408.51 715.628 404.167 725.265 397.238C737.735 388.271 750.414 380.583 762.59 373.2C805.164 347.387 841.604 325.292 841.604 265.183C841.604 132.055 704.412 147.085 704.412 147.085C694.635 109.439 668.606 82.4361 644.984 57.9307C626.165 38.4079 608.874 20.4705 602.547 0ZM549.863 228.68C542.219 201.976 559.567 128.512 601.893 102.39C644.22 128.512 661.568 201.976 653.924 228.68C646.419 254.895 618.176 306.715 602.547 335.123C601.117 332.534 599.572 329.75 597.94 326.808L597.783 326.525L597.753 326.472C581.475 297.138 556.658 252.414 549.863 228.68ZM1099.32 602C1086.29 583.297 1045.42 546.689 984.284 547.544C923.162 548.398 867.104 584.008 846.337 602C867.104 619.992 923.162 655.602 984.284 656.456C1045.42 657.31 1086.28 620.703 1099.32 602ZM653.924 975.32C661.568 1002.02 644.22 1075.49 601.893 1101.61C559.567 1075.49 542.219 1002.02 549.863 975.32C556.658 951.585 581.475 906.862 597.753 877.528C599.454 874.463 601.062 871.564 602.547 868.877C618.176 897.285 646.419 949.105 653.924 975.32ZM602.548 794.952C602.548 794.952 631.969 894.799 653.924 930.228C666.363 951.342 697.601 990.565 731.845 987.13C766.089 983.694 773.518 952.091 765.873 925.933C759.71 904.847 734.676 883.703 708.723 861.783C706.927 860.267 705.127 858.746 703.328 857.222C700.202 854.572 696.363 851.805 691.956 848.63C673.151 835.078 643.986 814.06 615.532 762.744C608.692 750.409 604.355 738.399 601.894 726.961C599.432 738.399 595.095 750.409 588.255 762.744C559.801 814.061 530.636 835.079 511.831 848.631C507.424 851.807 503.586 854.573 500.459 857.223C498.66 858.747 496.86 860.267 495.064 861.784C469.111 883.704 444.078 904.847 437.914 925.934C430.27 952.091 437.698 983.694 471.942 987.13C506.186 990.566 537.425 951.343 549.863 930.228C571.818 894.799 602.548 794.952 602.548 794.952ZM219.503 656.456C158.367 657.311 117.502 620.703 104.468 602C117.502 583.297 158.367 546.689 219.503 547.543C280.626 548.398 336.684 584.008 357.451 602C336.684 619.992 280.626 655.602 219.503 656.456ZM237.041 488.495C243.626 534.66 370.724 585.24 429.259 601.702C370.724 618.164 243.626 669.34 237.041 715.505C230.456 761.671 266.201 773.653 297.406 769.186C324.387 765.324 341.551 739.223 360.884 709.826C373.794 690.195 387.672 669.093 406.085 652.162C497.16 568.42 568.682 618.88 580.594 631.763C586.481 638.131 597 654.727 601.894 677.532C606.787 654.726 617.307 638.13 623.194 631.763C635.105 618.88 706.628 568.42 797.702 652.162C816.116 669.092 829.993 690.194 842.904 709.826C862.236 739.223 879.401 765.323 906.382 769.186C937.586 773.653 973.332 761.67 966.746 715.505C960.161 669.339 833.398 618.164 774.862 601.702C833.398 585.24 960.161 534.66 966.746 488.495C973.332 442.329 937.586 430.347 906.382 434.814C879.401 438.677 862.236 464.777 842.904 494.174C829.993 513.806 816.116 534.907 797.702 551.838C706.628 635.58 635.105 585.12 623.194 572.237C617.307 565.869 606.787 549.274 601.894 526.468C597 549.273 586.481 565.869 580.594 572.237C568.682 585.12 497.16 635.58 406.085 551.838C387.672 534.907 373.794 513.805 360.884 494.174C341.551 464.777 324.387 438.676 297.406 434.814C266.201 430.347 230.456 442.329 237.041 488.495ZM549.863 273.771C571.818 309.201 602.548 409.047 602.548 409.047C602.548 409.047 631.969 309.201 653.924 273.772C666.363 252.657 697.601 213.435 731.845 216.87C766.089 220.306 773.518 251.909 765.873 278.066C759.71 299.153 734.676 320.297 708.723 342.217C706.927 343.733 705.127 345.253 703.328 346.778C700.202 349.428 696.363 352.194 691.956 355.37C673.151 368.922 643.986 389.94 615.532 441.256C608.692 453.591 604.355 465.601 601.894 477.039C599.432 465.601 595.095 453.591 588.255 441.255C559.801 389.939 530.637 368.922 511.832 355.37C507.424 352.194 503.586 349.427 500.459 346.777C498.66 345.253 496.86 343.732 495.064 342.216C469.111 320.296 444.078 299.153 437.914 278.066C430.27 251.909 437.698 220.305 471.942 216.87C506.186 213.434 537.425 252.657 549.863 273.771Z" fill="#140F0F"/>
</svg>
